<svg width="19" height="22" viewBox="0 0 19 22" fill="none" xmlns="http://www.w3.org/2000/svg">
<g id="Group">
<path id="Vector" d="M9.98059 0.0184929C11.1741 0 12.3596 0.00792553 13.5424 0C13.6145 1.37904 14.1165 2.78714 15.1364 3.75934C16.1564 4.7606 17.5982 5.22028 19 5.37351V9.00869C17.6863 8.96377 16.3673 8.69431 15.1712 8.13424C14.6505 7.89911 14.1699 7.60323 13.6946 7.29677C13.6866 9.93069 13.7026 12.562 13.6759 15.188C13.6038 16.4508 13.1846 17.703 12.445 18.7412C11.2515 20.4716 9.18224 21.5997 7.05956 21.6367C5.75658 21.708 4.45359 21.3567 3.34018 20.7068C1.50586 19.6315 0.210891 17.666 0.018648 15.5552C-4.22997e-05 15.1034 -0.00805244 14.6543 0.0106379 14.2105C0.173511 12.4959 1.0306 10.8553 2.36295 9.73784C3.87686 8.43805 5.99154 7.81721 7.96737 8.18707C7.98606 9.5212 7.92999 10.8553 7.92999 12.1921C7.02752 11.9041 5.97018 11.9834 5.17718 12.525C4.60312 12.8948 4.16523 13.4628 3.93827 14.1022C3.74603 14.5618 3.8021 15.0664 3.81011 15.5552C4.02906 17.0346 5.46821 18.2789 7.00082 18.1442C8.02077 18.1363 8.99534 17.5498 9.52401 16.6912C9.69756 16.3926 9.88981 16.0862 9.89782 15.7348C9.9886 14.1207 9.95122 12.5144 9.9619 10.9002C9.96991 7.26771 9.95389 3.6431 9.98059 0.0184929Z" fill="#202246"/>
</g>
</svg>
