<svg width="23" height="23" viewBox="0 0 23 23" fill="none" xmlns="http://www.w3.org/2000/svg">
<path id="Vector" d="M22.0871 0H0.912932C0.397567 0 0 0.412292 0 0.912932V22.0871C0 22.6024 0.412292 23 0.912932 23H22.0871C22.6024 23 23 22.5877 23 22.0871V0.912932C23 0.412292 22.5877 0 22.0871 0ZM21.1594 21.1594H15.8585V14.0915H18.8624L19.3041 10.6165H15.8585V8.40781C15.8585 7.40653 16.1383 6.71447 17.5813 6.71447H19.4219V3.60755C19.098 3.56338 18.0083 3.47503 16.742 3.47503C14.0915 3.47503 12.2804 5.09475 12.2804 8.06914V10.6165H9.27657V14.0915H12.2804V21.1594H1.84059V1.84059H21.1594V21.1594Z" fill="#202246"/>
</svg>
