<svg width="28" height="20" viewBox="0 0 28 20" fill="none" xmlns="http://www.w3.org/2000/svg">
<path id="Vector" d="M27.984 9.91332C27.984 9.85028 27.984 9.77147 27.984 9.67691C27.984 9.42474 27.968 9.14106 27.968 8.84161C27.936 7.99054 27.9041 7.12372 27.8241 6.31994C27.7282 5.20095 27.6002 4.28684 27.4083 3.59338C27.0086 2.1119 25.8412 0.961387 24.3381 0.567376C23.4586 0.33097 21.7316 0.189126 19.285 0.094563C18.1336 0.0472817 16.8864 0.0315212 15.6391 0.0157608C15.2073 0.0157608 14.8075 0 14.4397 0H13.5283C13.1605 0 12.7607 3.60493e-07 12.329 0.0157608C11.0817 0.0315212 9.85037 0.0630421 8.68304 0.094563C6.25243 0.189126 4.50942 0.33097 3.62993 0.567376C2.15877 0.945627 0.975443 2.1119 0.575671 3.59338C0.383781 4.28684 0.255854 5.21671 0.159909 6.31994C0.0959452 7.12372 0.0479726 7.97478 0.0159909 8.84161C6.0762e-08 9.14106 0 9.42474 0 9.67691C0 9.77147 0 9.85028 0 9.91332V10.0867C0 10.1497 0 10.2285 0 10.3231C0 10.5753 0.0159909 10.8589 0.0159909 11.1584C0.0479726 12.0095 0.0799543 12.8763 0.159909 13.6801C0.255854 14.7991 0.383781 15.7132 0.575671 16.4066C0.975443 17.8881 2.14278 19.0386 3.64592 19.4326C4.52541 19.669 6.25243 19.8109 8.69903 19.9054C9.85037 19.9527 11.0977 19.9685 12.3449 19.9842C12.7767 19.9842 13.1765 20 13.5443 20H14.4557C14.8235 20 15.2233 20 15.6551 19.9842C16.9023 19.9685 18.1336 19.937 19.301 19.9054C21.7316 19.8109 23.4746 19.669 24.3541 19.4326C25.8572 19.0386 27.0246 17.8723 27.4243 16.4066C27.6162 15.7132 27.7441 14.7833 27.8401 13.6801C27.9041 12.8763 27.952 12.0252 27.984 11.1584C28 10.8589 28 10.5753 28 10.3231C28 10.2285 28 10.1497 28 10.0867V9.99212L27.984 9.91332ZM25.7293 10.0709C25.7293 10.134 25.7293 10.2128 25.7293 10.2916C25.7293 10.528 25.7133 10.7959 25.7133 11.0796C25.6973 11.8991 25.6493 12.7187 25.5854 13.4752C25.5054 14.4681 25.3775 15.2719 25.2336 15.8235C25.0417 16.5327 24.466 17.1001 23.7464 17.2892C23.0908 17.4626 21.4437 17.6044 19.189 17.6832C18.0537 17.7305 16.8224 17.7463 15.6071 17.762C15.1753 17.762 14.7756 17.7778 14.4238 17.7778H13.5283C13.1765 17.7778 12.7767 17.7778 12.3449 17.762C11.1296 17.7463 9.89834 17.7147 8.76299 17.6832C6.52427 17.6044 4.86122 17.4626 4.2056 17.2892C3.48601 17.1001 2.92633 16.5327 2.71845 15.8235C2.57453 15.2719 2.4466 14.4681 2.36665 13.4752C2.30268 12.7187 2.25471 11.8991 2.23872 11.0796C2.22273 10.7959 2.22273 10.528 2.22273 10.2916C2.22273 10.2128 2.22273 10.134 2.22273 10.0709V9.97636V9.91332C2.22273 9.85028 2.22273 9.77147 2.22273 9.69267C2.22273 9.45626 2.23872 9.18834 2.23872 8.90465C2.25471 8.08511 2.30268 7.26556 2.36665 6.50906C2.4466 5.51615 2.57453 4.71237 2.71845 4.16076C2.91034 3.45154 3.48601 2.88416 4.2056 2.69504C4.86122 2.52167 6.50828 2.37983 8.76299 2.30102C9.89834 2.25374 11.1296 2.23798 12.3449 2.22222C12.7767 2.22222 13.1765 2.20646 13.5283 2.20646H14.4238C14.7756 2.20646 15.1753 2.20646 15.6071 2.22222C16.8224 2.23798 18.0537 2.2695 19.189 2.30102C21.4278 2.37983 23.0908 2.52167 23.7464 2.69504C24.466 2.88416 25.0257 3.45154 25.2336 4.16076C25.3775 4.71237 25.5054 5.51615 25.5854 6.50906C25.6493 7.26556 25.6973 8.08511 25.7133 8.90465C25.7293 9.18834 25.7293 9.45626 25.7293 9.69267C25.7293 9.77147 25.7293 9.85028 25.7293 9.91332V10.0709ZM11.2096 14.1214L18.4535 9.9606L11.2096 5.86288V14.1214Z" fill="#202246"/>
</svg>
