<svg xmlns="http://www.w3.org/2000/svg" width="16" height="16" class="icon" viewBox="0 0 1024 1024"><path fill="#111" d="M819.2 204.8H204.8c-56.627 0-102.4 44.032-102.4 98.458v381.337c0 54.426 45.773 98.458 102.4 98.458h614.4c56.422 0 102.4-44.032 102.4-98.458V303.258c0-54.426-45.978-98.458-102.4-98.458zm47.77 479.795c0 25.293-21.402 45.875-47.77 45.875H204.8c-26.368 0-47.77-20.582-47.77-45.875V303.258c0-25.242 21.402-45.876 47.77-45.876h614.4c26.368 0 47.77 20.634 47.77 45.876v381.337z"/><path fill="#111" d="m510.464 577.946 209.408-197.274a25.6 25.6 0 0 1 35.123 37.274L527.821 631.91a25.6 25.6 0 0 1-35.328-.204L270.029 417.792a25.6 25.6 0 0 1 35.481-36.864l205.005 197.069z"/></svg>