<svg xmlns="http://www.w3.org/2000/svg" width="28" height="20" fill="none" viewBox="0 0 28 20"><path fill="#202246" d="M27.984 9.913v-.236c0-.252-.016-.536-.016-.835-.032-.851-.064-1.718-.144-2.522-.096-1.12-.224-2.033-.416-2.727a4.29 4.29 0 0 0-3.07-3.026c-.88-.236-2.606-.378-5.053-.472a131.944 131.944 0 0 0-3.646-.08c-.432 0-.832-.015-1.2-.015h-.91c-.368 0-.768 0-1.2.016-1.247.016-2.479.047-3.646.079C6.253.189 4.509.33 3.63.567A4.295 4.295 0 0 0 .576 3.593C.384 4.287.256 5.217.16 6.32a59.85 59.85 0 0 0-.144 2.522A15.4 15.4 0 0 0 0 9.677v.646c0 .252.016.536.016.835.032.851.064 1.718.144 2.522.096 1.12.224 2.033.416 2.727a4.29 4.29 0 0 0 3.07 3.026c.88.236 2.606.378 5.053.472 1.151.048 2.399.063 3.646.08.432 0 .832.015 1.2.015h.91c.368 0 .768 0 1.2-.016 1.247-.016 2.479-.047 3.646-.079 2.43-.094 4.174-.236 5.053-.472a4.316 4.316 0 0 0 3.07-3.026c.192-.694.32-1.624.416-2.727.064-.804.112-1.655.144-2.522.016-.3.016-.583.016-.835v-.331l-.016-.079Zm-2.255.158v.22c0 .237-.016.505-.016.789a37.34 37.34 0 0 1-.128 2.395c-.08.993-.207 1.797-.351 2.348a2.1 2.1 0 0 1-1.488 1.466c-.655.174-2.302.315-4.557.394-1.135.047-2.367.063-3.582.079-.432 0-.831.016-1.183.016h-.896c-.351 0-.751 0-1.183-.016a243.676 243.676 0 0 1-3.582-.079c-2.239-.079-3.902-.22-4.557-.394a2.129 2.129 0 0 1-1.488-1.466c-.143-.551-.271-1.355-.351-2.348a37.413 37.413 0 0 1-.128-2.395c-.016-.284-.016-.552-.016-.788v-.599c0-.237.016-.505.016-.788.016-.82.064-1.64.128-2.396.08-.993.208-1.797.351-2.348a2.1 2.1 0 0 1 1.488-1.466c.655-.173 2.302-.315 4.557-.394 1.135-.047 2.367-.063 3.582-.079.432 0 .832-.016 1.183-.016h.896c.352 0 .751 0 1.183.016 1.215.016 2.447.047 3.582.079 2.239.079 3.902.22 4.557.394.72.19 1.28.757 1.488 1.466.143.551.271 1.355.351 2.348.064.757.112 1.576.128 2.396.016.283.016.551.016.788v.378Zm-14.52 4.05 7.244-4.16-7.243-4.098v8.258Z"/></svg>