<svg xmlns="http://www.w3.org/2000/svg" width="19" height="22" fill="none" viewBox="0 0 19 22"><path fill="#202246" d="M9.98.018C11.175 0 12.36.008 13.543 0c.072 1.379.575 2.787 1.594 3.76 1.02 1 2.462 1.46 3.864 1.614v3.635c-1.314-.045-2.633-.315-3.829-.875-.52-.235-1.001-.53-1.476-.837-.008 2.634.008 5.265-.02 7.891a6.825 6.825 0 0 1-1.23 3.553c-1.194 1.73-3.263 2.859-5.385 2.896-1.303.071-2.606-.28-3.72-.93C1.506 19.63.21 17.666.02 15.555c-.019-.452-.027-.9-.008-1.345a6.73 6.73 0 0 1 2.352-4.472c1.514-1.3 3.629-1.92 5.604-1.55.02 1.333-.037 2.667-.037 4.004-.902-.288-1.96-.209-2.753.333a3.133 3.133 0 0 0-1.239 1.577c-.192.46-.136.964-.128 1.453.22 1.48 1.658 2.724 3.19 2.59 1.02-.009 1.995-.595 2.524-1.454.174-.298.366-.605.374-.956.09-1.614.053-3.22.064-4.835.008-3.632-.008-7.257.019-10.882Z"/></svg>