<svg xmlns="http://www.w3.org/2000/svg" width="25" height="24" fill="none" viewBox="0 0 25 24"><g fill="#202246"><path d="M12.497 5.843c-3.55 0-6.414 2.75-6.414 6.157s2.864 6.157 6.414 6.157c3.549 0 6.413-2.75 6.413-6.157s-2.864-6.157-6.413-6.157Zm0 10.159c-2.296 0-4.169-1.798-4.169-4.002 0-2.203 1.873-4.002 4.169-4.002 2.295 0 4.168 1.799 4.168 4.002 0 2.204-1.873 4.002-4.168 4.002Zm6.676-11.846c-.829 0-1.498.642-1.498 1.438 0 .795.67 1.438 1.498 1.438.829 0 1.498-.64 1.498-1.438-.003-.799-.67-1.438-1.498-1.438Z"/><path d="M24.999 12c0-1.657.015-3.3-.082-4.953-.097-1.922-.553-3.627-2.017-5.032C21.434.607 19.66.172 17.66.08 15.932-.014 14.222 0 12.5 0c-1.726 0-3.437-.015-5.16.078-2 .094-3.777.532-5.24 1.937C.632 3.423.18 5.125.081 7.047-.015 8.704.001 10.346.001 12c0 1.654-.016 3.3.081 4.953.097 1.922.554 3.627 2.017 5.032 1.467 1.408 3.24 1.843 5.241 1.936 1.726.093 3.437.078 5.16.078 1.726 0 3.436.015 5.16-.078 2-.093 3.777-.531 5.24-1.936 1.467-1.408 1.92-3.11 2.017-5.032.1-1.654.082-3.296.082-4.953Zm-2.752 7.079a3.806 3.806 0 0 1-.945 1.375 4.01 4.01 0 0 1-1.432.906c-1.645.628-5.55.487-7.373.487-1.823 0-5.732.14-7.377-.484a3.99 3.99 0 0 1-1.432-.906 3.831 3.831 0 0 1-.945-1.375C2.093 17.5 2.24 13.75 2.24 12s-.147-5.503.503-7.082c.229-.546.504-.954.945-1.375a4.06 4.06 0 0 1 1.432-.906c1.645-.625 5.554-.484 7.377-.484 1.823 0 5.732-.14 7.376.484.57.219.995.483 1.433.906.44.424.716.829.944 1.375.65 1.58.503 5.332.503 7.082s.147 5.5-.506 7.079Z"/></g></svg>